<svg xmlns="http://www.w3.org/2000/svg" width="1920" height="1080" viewBox="0 0 1920 1080"><rect width="100%" height="100%" fill="#0e1421"/><path fill="#47555f" d="M483.415 559.135q1.92 0 3.4 1.48l9.22 10.01q-7.66 9.48-18.84 14.53-11.18 5.04-26.84 5.04-14 0-25.18-4.78-11.18-4.79-19.1-13.31-7.92-8.53-12.14-20.36-4.22-11.83-4.22-25.84 0-14.18 4.53-25.97 4.52-11.79 12.74-20.32 8.22-8.52 19.62-13.26t25.23-4.74q13.75 0 24.4 4.52 10.66 4.52 18.14 11.83l-7.83 10.88q-.69 1.04-1.78 1.82-1.09.79-3 .79-1.31 0-2.7-.74-1.39-.74-3.04-1.83-1.66-1.09-3.83-2.39-2.18-1.31-5.05-2.39-2.87-1.09-6.65-1.83-3.79-.74-8.75-.74-8.43 0-15.44 3-7 3-12.05 8.7-5.04 5.7-7.83 13.92-2.78 8.22-2.78 18.75 0 10.61 3 18.88 3 8.26 8.13 13.92 5.14 5.65 12.1 8.65 6.96 3.01 14.96 3.01 4.79 0 8.66-.53 3.87-.52 7.13-1.65t6.18-2.91q2.91-1.79 5.78-4.4.87-.78 1.83-1.26.96-.48 2-.48Zm64.82-60.98q9.92 0 18.05 3.21 8.13 3.22 13.92 9.14 5.79 5.92 8.92 14.44 3.13 8.53 3.13 19.05 0 10.62-3.13 19.14-3.13 8.53-8.92 14.53-5.79 6.01-13.92 9.23-8.13 3.22-18.05 3.22-10.01 0-18.19-3.22-8.17-3.22-13.96-9.23-5.78-6-8.96-14.53-3.18-8.52-3.18-19.14 0-10.52 3.18-19.05 3.18-8.52 8.96-14.44 5.79-5.92 13.96-9.14 8.18-3.21 18.19-3.21Zm0 75.42q11.13 0 16.48-7.48t5.35-21.92q0-14.44-5.35-22.01-5.35-7.57-16.48-7.57-11.31 0-16.75 7.61-5.44 7.61-5.44 21.97 0 14.35 5.44 21.88 5.44 7.52 16.75 7.52Zm81.95 15.23h-21.49v-89.26h13.14q4.18 0 5.48 3.91l1.39 6.61q2.35-2.61 4.92-4.78 2.56-2.18 5.48-3.74 2.91-1.57 6.26-2.48 3.35-.91 7.35-.91 8.44 0 13.88 4.56 5.44 4.57 8.14 12.14 2.08-4.44 5.22-7.61 3.13-3.18 6.87-5.18 3.74-2 7.96-2.96 4.22-.95 8.48-.95 7.4 0 13.14 2.26t9.66 6.61q3.91 4.35 5.95 10.61 2.05 6.27 2.05 14.36v56.81h-21.49v-56.81q0-8.53-3.74-12.83-3.74-4.31-10.96-4.31-3.31 0-6.14 1.13-2.82 1.13-4.96 3.26-2.13 2.13-3.34 5.35-1.22 3.22-1.22 7.4v56.81h-21.58v-56.81q0-8.96-3.61-13.05t-10.57-4.09q-4.7 0-8.74 2.31-4.05 2.3-7.53 6.3v65.34Zm124.93-89.26h21.58v89.26h-21.58v-89.26Zm24.54-26.02q0 2.79-1.13 5.22-1.13 2.44-3.01 4.27-1.87 1.82-4.39 2.91-2.52 1.09-5.39 1.09-2.79 0-5.27-1.09-2.48-1.09-4.3-2.91-1.83-1.83-2.92-4.27-1.08-2.43-1.08-5.22 0-2.87 1.08-5.39 1.09-2.52 2.92-4.35 1.82-1.83 4.3-2.91 2.48-1.09 5.27-1.09 2.87 0 5.39 1.09 2.52 1.08 4.39 2.91 1.88 1.83 3.01 4.35 1.13 2.52 1.13 5.39Zm37.58 29.93 1.48 7.05q2.7-2.7 5.7-5 3-2.31 6.35-3.92 3.35-1.61 7.18-2.52 3.83-.91 8.35-.91 7.31 0 12.96 2.48 5.66 2.47 9.44 6.96 3.79 4.48 5.74 10.7 1.96 6.22 1.96 13.7v56.81h-21.49v-56.81q0-8.18-3.74-12.66t-11.4-4.48q-5.56 0-10.44 2.52-4.87 2.53-9.22 6.88v64.55h-21.49v-89.26h13.14q4.18 0 5.48 3.91Zm112.14 38.54q4.01 0 6.96-1.08 2.96-1.09 4.92-3.01 1.96-1.91 2.96-4.61 1-2.69 1-5.91 0-6.61-3.96-10.49-3.96-3.87-11.88-3.87-7.91 0-11.87 3.87-3.96 3.88-3.96 10.49 0 3.13 1 5.83 1 2.69 2.96 4.65 1.96 1.96 4.96 3.05 3 1.08 6.91 1.08Zm24.28 50.81q0-2.61-1.57-4.26-1.56-1.65-4.26-2.57-2.7-.91-6.31-1.35-3.61-.43-7.66-.65-4.04-.22-8.35-.39-4.3-.17-8.39-.7-3.57 2-5.79 4.7t-2.22 6.27q0 2.35 1.18 4.39 1.17 2.04 3.74 3.52 2.57 1.48 6.65 2.31 4.09.83 10.01.83 6 0 10.35-.92 4.35-.91 7.18-2.52 2.83-1.61 4.13-3.83 1.31-2.22 1.31-4.83Zm-4.27-90.22h25.67v8.01q0 3.82-4.61 4.69l-8.01 1.48q1.83 4.61 1.83 10.1 0 6.61-2.65 11.96-2.66 5.35-7.35 9.09-4.7 3.74-11.1 5.79-6.39 2.04-13.79 2.04-2.61 0-5.04-.26-2.44-.26-4.79-.7-4.17 2.53-4.17 5.66 0 2.69 2.48 3.96 2.48 1.26 6.57 1.78 4.08.52 9.3.65 5.22.13 10.71.57 5.48.43 10.7 1.52 5.22 1.09 9.31 3.44 4.08 2.35 6.56 6.39 2.48 4.05 2.48 10.4 0 5.91-2.91 11.48-2.92 5.57-8.44 9.92t-13.57 7q-8.05 2.66-18.32 2.66-10.09 0-17.57-1.96t-12.44-5.22q-4.96-3.26-7.4-7.53-2.43-4.26-2.43-8.87 0-6.26 3.78-10.48 3.79-4.22 10.4-6.75-3.57-1.82-5.66-4.87-2.08-3.04-2.08-8 0-2 .74-4.13.74-2.14 2.17-4.22 1.44-2.09 3.61-3.96 2.18-1.87 5.13-3.35-6.78-3.66-10.65-9.75t-3.87-14.26q0-6.62 2.65-11.97 2.65-5.35 7.39-9.13 4.75-3.79 11.23-5.79t14.13-2q5.75 0 10.79 1.18 5.05 1.17 9.22 3.43Zm157.74-27.75-5.83 11.05q-1.05 1.83-2.22 2.65-1.18.83-2.92.83-1.82 0-3.96-1.35-2.13-1.35-5.08-3-2.96-1.65-6.92-3t-9.35-1.35q-4.88 0-8.53 1.17-3.65 1.18-6.13 3.27-2.48 2.08-3.7 5-1.22 2.91-1.22 6.39 0 4.44 2.48 7.4t6.57 5.04q4.09 2.09 9.31 3.74 5.22 1.66 10.7 3.53 5.48 1.87 10.7 4.35 5.22 2.48 9.31 6.26 4.09 3.79 6.57 9.27 2.48 5.48 2.48 13.31 0 8.52-2.92 15.96-2.91 7.44-8.52 12.97-5.61 5.52-13.71 8.7-8.09 3.17-18.53 3.17-6 0-11.83-1.17-5.83-1.18-11.18-3.35-5.35-2.18-10.05-5.22-4.69-3.05-8.35-6.79l6.87-11.22q.87-1.22 2.27-2.05 1.39-.82 2.95-.82 2.18 0 4.7 1.78 2.53 1.78 6.01 3.96 3.48 2.17 8.13 3.96 4.65 1.78 11.18 1.78 10 0 15.49-4.74 5.48-4.74 5.48-13.62 0-4.95-2.48-8.09-2.48-3.13-6.57-5.26t-9.31-3.61q-5.22-1.48-10.61-3.22-5.4-1.74-10.62-4.18-5.22-2.43-9.31-6.35-4.09-3.91-6.57-9.78-2.48-5.88-2.48-14.49 0-6.87 2.74-13.4 2.75-6.52 7.97-11.57 5.22-5.04 12.87-8.09 7.66-3.04 17.58-3.04 11.13 0 20.53 3.48 9.39 3.48 16.01 9.74Zm58.72 23.32q9.92 0 18.05 3.21 8.14 3.22 13.92 9.14 5.79 5.92 8.92 14.44 3.13 8.53 3.13 19.05 0 10.62-3.13 19.14-3.13 8.53-8.92 14.53-5.78 6.01-13.92 9.23-8.13 3.22-18.05 3.22-10 0-18.18-3.22t-13.97-9.23q-5.78-6-8.96-14.53-3.17-8.52-3.17-19.14 0-10.52 3.17-19.05 3.18-8.52 8.96-14.44 5.79-5.92 13.97-9.14 8.18-3.21 18.18-3.21Zm0 75.42q11.14 0 16.49-7.48 5.35-7.48 5.35-21.92 0-14.44-5.35-22.01-5.35-7.57-16.49-7.57-11.31 0-16.75 7.61-5.43 7.61-5.43 21.97 0 14.35 5.43 21.88 5.44 7.52 16.75 7.52Zm99.96-75.42q9.92 0 18.06 3.21 8.13 3.22 13.92 9.14 5.78 5.92 8.91 14.44 3.14 8.53 3.14 19.05 0 10.62-3.14 19.14-3.13 8.53-8.91 14.53-5.79 6.01-13.92 9.23-8.14 3.22-18.06 3.22-10 0-18.18-3.22t-13.96-9.23q-5.79-6-8.96-14.53-3.18-8.52-3.18-19.14 0-10.52 3.18-19.05 3.17-8.52 8.96-14.44 5.78-5.92 13.96-9.14 8.18-3.21 18.18-3.21Zm0 75.42q11.14 0 16.49-7.48 5.35-7.48 5.35-21.92 0-14.44-5.35-22.01-5.35-7.57-16.49-7.57-11.31 0-16.74 7.61-5.44 7.61-5.44 21.97 0 14.35 5.44 21.88 5.43 7.52 16.74 7.52Zm79.09-70.12 1.48 7.05q2.69-2.7 5.69-5 3.01-2.31 6.35-3.92 3.35-1.61 7.18-2.52 3.83-.91 8.35-.91 7.31 0 12.97 2.48 5.65 2.47 9.44 6.96 3.78 4.48 5.74 10.7 1.96 6.22 1.96 13.7v56.81h-21.49v-56.81q0-8.18-3.74-12.66t-11.4-4.48q-5.57 0-10.44 2.52-4.87 2.53-9.22 6.88v64.55h-21.49v-89.26h13.14q4.17 0 5.48 3.91Zm76.38 73.52q0-2.7 1-5.13 1-2.44 2.74-4.18 1.74-1.74 4.18-2.79 2.44-1.04 5.22-1.04t5.18 1.04q2.39 1.05 4.17 2.79 1.79 1.74 2.83 4.18 1.04 2.43 1.04 5.13 0 2.78-1.04 5.17-1.04 2.4-2.83 4.14-1.78 1.74-4.17 2.74-2.4 1-5.18 1t-5.22-1q-2.44-1-4.18-2.74-1.74-1.74-2.74-4.14-1-2.39-1-5.17Zm41.33 0q0-2.7 1-5.13 1-2.44 2.74-4.18 1.74-1.74 4.17-2.79 2.44-1.04 5.22-1.04 2.79 0 5.18 1.04 2.39 1.05 4.18 2.79 1.78 1.74 2.82 4.18 1.05 2.43 1.05 5.13 0 2.78-1.05 5.17-1.04 2.4-2.82 4.14-1.79 1.74-4.18 2.74-2.39 1-5.18 1-2.78 0-5.22-1-2.43-1-4.17-2.74-1.74-1.74-2.74-4.14-1-2.39-1-5.17Zm41.32 0q0-2.7 1-5.13 1-2.44 2.74-4.18 1.74-1.74 4.18-2.79 2.44-1.04 5.22-1.04t5.18 1.04q2.39 1.05 4.17 2.79 1.79 1.74 2.83 4.18 1.04 2.43 1.04 5.13 0 2.78-1.04 5.17-1.04 2.4-2.83 4.14-1.78 1.74-4.17 2.74-2.4 1-5.18 1t-5.22-1q-2.44-1-4.18-2.74-1.74-1.74-2.74-4.14-1-2.39-1-5.17Z"/></svg>